# xmcd CD database file
#
# Track frame offsets:
#	187
#	17610
#	39502
#
# Disc length: 777 seconds
#
# Revision: 0
# Processed by: cddbd v1.5.1PL0 Copyright (c) Steve Scherf et al.
# Submitted via: CDex 1.51
#
DISCID=18030703
DTITLE=清水弘貴 - Weeps
DYEAR=1997
DGENRE=Rock
TTITLE0=Weeps〜彼の言葉〜
TTITLE1=僕らの風景
TTITLE2=There are smiles
EXTD=YEAR: 1997
EXTT0=
EXTT1=
EXTT2=
PLAYORDER=
